<svg xmlns="http://www.w3.org/2000/svg" viewBox="0 0 400 364.12"><defs><style>.cls-1{fill:#a8949a;}.cls-2{fill:#fff;}.cls-3{fill:#ffeab0;}.cls-4{fill:#e09346;}.cls-5{fill:#99337f;}.cls-6{fill:#71dba8;}.cls-7{fill:#542e38;}</style></defs><title>f1</title><g id="Layer_2" data-name="Layer 2"><g id="Layer_1-2" data-name="Layer 1"><path class="cls-1" d="M378.9,58.36a10.22,10.22,0,0,1,.47-1.5l11.42-28.54a10.21,10.21,0,0,0-7.86-13.87L346.35,8.6a10.21,10.21,0,0,0-4.38.26L248.61,35.18,210.9,45.42a5.07,5.07,0,0,0-1.79.9l-24.92,7q-.45.13-.88.29L64.56,99.16a10.19,10.19,0,0,1-5.93.39h0c-.24-.05-.47-.13-.7-.2a10.14,10.14,0,0,1-1.59-.6L48,94.57a10.21,10.21,0,0,0-8.26-.38L15,103.8A10.21,10.21,0,0,0,8.7,115.42l15.89,75.14a78.92,78.92,0,0,0,21.93,40l79.79,78.31a78.92,78.92,0,0,0,33.43,19.51L253,355.25a10.21,10.21,0,0,0,12.3-6l11.89-29.74a10.21,10.21,0,0,0,.53-5.79l-3-15.06a10.2,10.2,0,0,1,.25-5L308.11,185.5a23.49,23.49,0,0,0,8.49-13.14l2-8.31a23.49,23.49,0,0,0,.27-9.48l11.61-29.37a10.21,10.21,0,0,1,.74-1.5l6.66-11.1a10.21,10.21,0,0,1,18.43,2h0a10.21,10.21,0,0,1-.26,7.15l-6.18,14.84a10.21,10.21,0,0,0,2.2,11.14l4.4,4.4a10.21,10.21,0,0,0,14.43,0l7.92-7.92a10.21,10.21,0,0,0,2.95-8.11l-5.61-63.55a10.21,10.21,0,0,1,.22-3.19Z"/><path class="cls-2" d="M344.73,8.47a10.2,10.2,0,0,1,1.61.13l36.58,5.85a10.2,10.2,0,0,1,7.86,13.87L379.37,56.86a10.22,10.22,0,0,0-.47,1.5l-2.54,11a10.21,10.21,0,0,0-.22,3.19l5.61,63.55a10.2,10.2,0,0,1-2.95,8.11l-7.92,7.92a10.2,10.2,0,0,1-14.43,0l-4.4-4.4a10.21,10.21,0,0,1-2.2-11.14L356,121.78a10.21,10.21,0,0,0-9.45-14.13,10,10,0,0,0-8.72,5l-6.66,11.1a10.2,10.2,0,0,0-.74,1.5l-11.61,29.37a23.49,23.49,0,0,1-.27,9.48l-2,8.31a23.49,23.49,0,0,1-8.49,13.14L275,293.65a10.21,10.21,0,0,0-.25,5l3,15.06a10.21,10.21,0,0,1-.53,5.79l-11.89,29.74a10.2,10.2,0,0,1-12.3,6l-93.26-26.87a78.92,78.92,0,0,1-33.43-19.51L46.52,230.55a78.92,78.92,0,0,1-21.93-40L8.7,115.42A10.21,10.21,0,0,1,15,103.8L39.7,94.19a10.21,10.21,0,0,1,8.26.38l8.38,4.19a10.14,10.14,0,0,0,1.59.6c.23.07.46.14.7.2a10.5,10.5,0,0,0,2.35.27,10,10,0,0,0,3.59-.66L183.3,53.65q.43-.17.88-.29l24.92-7a5.07,5.07,0,0,1,1.79-.9l37.71-10.24L342,8.85a10.2,10.2,0,0,1,2.77-.38m0-8.47a18.68,18.68,0,0,0-5.07.7L246.35,27,208.68,37.25a13.38,13.38,0,0,0-3.09,1.27l-23.7,6.68c-.54.15-1.09.33-1.62.54L61.53,91.26a1.55,1.55,0,0,1-.55.1,2,2,0,0,1-.38,0l-.07,0-.15,0L60,91.14,51.75,87a18.67,18.67,0,0,0-15.12-.7L11.91,95.91A18.61,18.61,0,0,0,.41,117.18l15.89,75.14A87.13,87.13,0,0,0,40.59,236.6l79.79,78.31a87.67,87.67,0,0,0,37,21.61l93.26,26.87a18.67,18.67,0,0,0,22.51-11l11.89-29.74a18.63,18.63,0,0,0,1-10.6L283,297a1.74,1.74,0,0,1,0-.85l32.42-105.8a32.06,32.06,0,0,0,9.35-16l2-8.31a31.66,31.66,0,0,0,.71-10.37l10.8-27.32a1.73,1.73,0,0,1,.13-.25l6.66-11.1a1.58,1.58,0,0,1,1.46-.84,1.66,1.66,0,0,1,1.68,1.19,1.74,1.74,0,0,1,0,1.22L342,133.36a18.61,18.61,0,0,0,4,20.39l4.4,4.4a18.67,18.67,0,0,0,26.41,0l7.92-7.92a18.63,18.63,0,0,0,5.4-14.85l-5.61-63.55a1.74,1.74,0,0,1,0-.54l2.54-11a1.73,1.73,0,0,1,.08-.25l11.42-28.55A18.67,18.67,0,0,0,384.27,6.09L347.68.23a18.73,18.73,0,0,0-3-.23Z"/><path class="cls-3" d="M379.37,56.86l11.42-28.54a10.21,10.21,0,0,0-7.86-13.87L346.35,8.6a10.21,10.21,0,0,0-4.38.26L184.19,53.35q-.45.13-.88.29L64.56,99.16a10.21,10.21,0,0,1-8.22-.4L48,94.57a10.21,10.21,0,0,0-8.26-.38L15,103.8A10.21,10.21,0,0,0,8.7,115.42l15.89,75.14a78.92,78.92,0,0,0,21.93,40l79.79,78.31a78.92,78.92,0,0,0,33.43,19.51L253,355.25a10.21,10.21,0,0,0,12.3-6l11.89-29.74a10.21,10.21,0,0,0,.53-5.79l-3-15.06a10.21,10.21,0,0,1,.25-5L313.16,169q.12-.39.27-.76l17-43.05a10.21,10.21,0,0,1,.74-1.5l6.66-11.1a10.21,10.21,0,0,1,18.43,2h0a10.21,10.21,0,0,1-.26,7.15l-6.18,14.84a10.21,10.21,0,0,0,2.2,11.14l4.4,4.4a10.21,10.21,0,0,0,14.43,0l7.92-7.92a10.21,10.21,0,0,0,2.95-8.11l-5.61-63.55a10.21,10.21,0,0,1,.22-3.19l2.54-11A10.21,10.21,0,0,1,379.37,56.86Z"/><path class="cls-4" d="M223.12,291.92l-57.52-23A87.12,87.12,0,0,1,144,256.46l-35.86-28.25a87.12,87.12,0,0,1-29.85-44.5L63.4,131.46a87.13,87.13,0,0,1-2.82-14.31l-2-17.59a10.15,10.15,0,0,1-2.29-.79L48,94.57a10.21,10.21,0,0,0-8.26-.38L15,103.8A10.21,10.21,0,0,0,8.7,115.42l15.89,75.14a78.92,78.92,0,0,0,21.93,40l79.79,78.31a78.92,78.92,0,0,0,33.43,19.51L253,355.25a10.21,10.21,0,0,0,12.3-6l11.89-29.74a10.21,10.21,0,0,0,.53-5.79l-2.84-14.21L250.21,298A87.12,87.12,0,0,1,223.12,291.92Z"/><path class="cls-5" d="M311.06,18.23a5.16,5.16,0,0,1,6.39,4A44.09,44.09,0,0,1,316.38,44h0a44.09,44.09,0,0,1-17.91,23.83l-16.13,10.6a44.09,44.09,0,0,1-20.42,7.08l-3.61.31a44.09,44.09,0,0,1-29-7.76L224,74.4a44.09,44.09,0,0,1-16.65-22.34,5.17,5.17,0,0,1,3.52-6.63Z"/><path class="cls-6" d="M143.27,196.55l-14.46,20.1a6.74,6.74,0,0,1-7.1,2.61l-35.48-8.8a6.74,6.74,0,0,1-4.45-3.62L62.18,166a6.74,6.74,0,0,1-.1-5.62L83.71,111a6.74,6.74,0,0,1,2.23-2.76L122.68,81.7a6.74,6.74,0,0,1,7.88,0l30.64,22a6.74,6.74,0,0,1,1.54,9.41l-2.92,4.05a6.74,6.74,0,0,1-10.71.31l-8.44-10.41a6.74,6.74,0,0,0-1.81-1.56L124.48,97a6.74,6.74,0,0,0-7.78.66l-21.29,18a6.74,6.74,0,0,0-1.54,1.88L80.87,141a6.74,6.74,0,0,0,3,9.36L94,155.2a6.74,6.74,0,0,0,7.49-1.15l15.62-14.55a6.74,6.74,0,0,1,8.53-.54l3.82,2.74a6.74,6.74,0,0,1,2.72,6.55l-.46,2.85a6.74,6.74,0,0,1-7.73,5.58l-.2,0a6.74,6.74,0,0,0-4.21.69L98.89,168.2a6.74,6.74,0,0,1-3.69.75h0a6.74,6.74,0,0,0-7,8.73l5.22,16.67a6.74,6.74,0,0,0,4.15,4.33l18,6.47a6.74,6.74,0,0,0,8.83-4.72l3.26-13.16a6.74,6.74,0,0,1,11.4-3.06l3.59,3.72A6.74,6.74,0,0,1,143.27,196.55Z"/><path class="cls-6" d="M306.27,23.32l24.44-4a6.74,6.74,0,0,1,6.86,3.17l18.87,31.31a6.74,6.74,0,0,1,.59,5.71l-15,42.71a6.74,6.74,0,0,1-3.91,4l-50.24,19.65a6.74,6.74,0,0,1-3.53.38l-44.74-7.22a6.74,6.74,0,0,1-5.58-5.57L228,76.27a6.74,6.74,0,0,1,5.57-7.74l4.93-.8a6.74,6.74,0,0,1,7.79,7.36l-1.4,13.33a6.74,6.74,0,0,0,.18,2.39L249.19,107a6.74,6.74,0,0,0,6,5L283,114.32a6.74,6.74,0,0,0,2.42-.24l25.75-7.37a6.74,6.74,0,0,0,4.5-8.74l-3.76-10.58a6.74,6.74,0,0,0-6.11-4.48l-21.33-.76A6.74,6.74,0,0,1,278,76.5l-.76-4.64a6.74,6.74,0,0,1,2.71-6.55l2.34-1.69a6.74,6.74,0,0,1,9.41,1.52l.12.17a6.74,6.74,0,0,0,3.46,2.49l22.32,6.95a6.74,6.74,0,0,1,3.14,2.08h0a6.74,6.74,0,0,0,11.12-1.23L340,60.12a6.74,6.74,0,0,0,.12-6l-8.15-17.3a6.74,6.74,0,0,0-9.58-2.9l-11.62,7A6.74,6.74,0,0,1,300.52,35l.09-5.17A6.74,6.74,0,0,1,306.27,23.32Z"/><path class="cls-7" d="M317.52,149.87,315.58,145a23.5,23.5,0,0,0-11.3-12.27l-5.75-2.87a23.5,23.5,0,0,0-33.81,17.91l-1,7.51a23.5,23.5,0,0,0,1.47,11.83l2.79,7A23.5,23.5,0,0,0,278.56,186l3.38,1.85a23.5,23.5,0,0,0,23.35-.48l.54-.32a23.5,23.5,0,0,0,10.77-14.72l2-8.31A23.5,23.5,0,0,0,317.52,149.87Zm-14.37,29.68-2.69.9a10.64,10.64,0,0,1-8.85-1l-1.74-1a10.64,10.64,0,0,1-5.06-7.62l-.92-6.42a10.64,10.64,0,0,1,.75-5.7l2.23-5.2a10.64,10.64,0,0,1,19.75.46l3,7.93a10.64,10.64,0,0,1,.67,3.33l.15,3.83A10.64,10.64,0,0,1,303.14,179.54Z"/><path class="cls-1" d="M185,113.59l25.84,27a2,2,0,0,1-.38,2.34l-4.81,4.81A22.16,22.16,0,0,1,190,154.23h-8.35a19,19,0,0,1-12.52-4.7h0a43.35,43.35,0,0,1-14-24.12L153.87,119A43.35,43.35,0,0,1,163,82.81h0A43.35,43.35,0,0,1,194.2,67.2L210,66.41a22.16,22.16,0,0,1,18.84,8.84h0A22.16,22.16,0,0,1,233.15,91l-.83,7.47a2,2,0,0,1-2.51,1.75l-34.48-9.65a2,2,0,0,0-1.43,3.77l46.75,22a2,2,0,0,1,.92,2.63L235,133.82a2,2,0,0,1-2.74,1l-45.9-25.53a2,2,0,0,0-2,3.52h0A2,2,0,0,1,185,113.59Z"/><path class="cls-7" d="M169.5,171.76l3-4.28a23.5,23.5,0,0,0,4-16.18l-.76-6.38a23.5,23.5,0,0,0-33.55-18.39l-6.83,3.29a23.5,23.5,0,0,0-9.08,7.74l-4.3,6.17a23.5,23.5,0,0,0-4.14,15.37l.32,3.84a23.5,23.5,0,0,0,13.23,19.24l.57.27a23.5,23.5,0,0,0,18.22.91l8-2.92A23.5,23.5,0,0,0,169.5,171.76Zm-32.69,4.31-2.23-1.76a10.64,10.64,0,0,1-4.05-7.92l-.08-2a10.64,10.64,0,0,1,3.59-8.42l4.86-4.3a10.64,10.64,0,0,1,5.17-2.5l5.57-1a10.64,10.64,0,0,1,10.47,16.75l-5,6.84a10.64,10.64,0,0,1-2.42,2.39l-3.12,2.23A10.64,10.64,0,0,1,136.81,176.06Z"/><path class="cls-5" d="M216.5,170.4l14.49,4a49.26,49.26,0,0,1,32.37,28.54l3.9,9.35a49.26,49.26,0,0,1,2.48,30.23h0a49.26,49.26,0,0,1-18.14,27.93l-17.17,13.05A49.26,49.26,0,0,1,212.21,293l-4,.62a49.26,49.26,0,0,1-32.94-6.43l-6.16-3.7A49.26,49.26,0,0,1,146.88,254l-4.11-15.27a49.26,49.26,0,0,1,1.66-30.66l.74-1.9A49.26,49.26,0,0,1,169,180l12.32-6.16A49.26,49.26,0,0,1,216.5,170.4Z"/></g></g></svg>